<svg width="127" height="168" viewBox="0 0 127 168" fill="none" xmlns="http://www.w3.org/2000/svg">
<path d="M54.13 116.956C50.223 115.199 45.6305 116.941 43.8729 120.848L38.4179 132.976L26.2904 127.521C22.3834 125.763 17.7913 127.507 16.0339 131.414C14.2767 135.321 16.0193 139.912 19.926 141.67L39.1285 150.307C39.9832 150.692 40.8706 150.909 41.7539 150.972L42.1323 150.99C42.7617 151.004 43.3864 150.941 43.9929 150.805C44.1145 150.778 44.2355 150.749 44.3555 150.716C44.4751 150.683 44.5939 150.648 44.7117 150.609C45.0658 150.494 45.4111 150.353 45.7453 150.188C45.968 150.078 46.1861 149.958 46.3979 149.827C46.9273 149.5 47.4194 149.107 47.8613 148.654C48.1265 148.383 48.3739 148.09 48.5999 147.776C48.6754 147.672 48.7486 147.565 48.8193 147.455C48.9604 147.237 49.0916 147.01 49.2123 146.774L49.3847 146.415L58.0221 127.213C59.7793 123.306 58.0368 118.714 54.13 116.956Z" fill="#E58600"/>
<path d="M73.9392 114.279C78.2233 114.279 81.6969 117.752 81.697 122.036V135.334H94.9949C99.2789 135.334 102.752 138.808 102.752 143.092C102.752 147.376 99.2788 150.848 94.9949 150.849H73.9392C72.7343 150.849 71.5933 150.574 70.5759 150.084C70.3498 149.975 70.13 149.855 69.9167 149.726C69.8101 149.661 69.7055 149.593 69.6023 149.523C69.3961 149.384 69.197 149.235 69.0056 149.077C68.6224 148.761 68.2701 148.409 67.9539 148.025C67.7959 147.834 67.6469 147.635 67.5076 147.429C67.4379 147.326 67.3702 147.221 67.3054 147.114C67.1758 146.901 67.056 146.681 66.947 146.455C66.7836 146.116 66.6444 145.763 66.531 145.398C66.4555 145.156 66.3913 144.908 66.3396 144.655C66.3137 144.529 66.2909 144.401 66.2712 144.272C66.2321 144.016 66.2055 143.755 66.1921 143.491L66.1824 143.092V122.036C66.1825 117.752 69.6553 114.279 73.9392 114.279Z" fill="#E58600"/>
<ellipse cx="91.957" cy="163.825" rx="28.957" ry="3.8245" fill="#E6E6E6"/>
<path fill-rule="evenodd" clip-rule="evenodd" d="M64.2778 0C86.7886 0.000182193 105.037 16.3728 105.037 36.5693C105.037 47.5112 99.6792 57.3286 91.1909 64.0303C96.5645 69.386 100.488 76.1925 102.334 83.8115L123.8 82.2393C125.816 82.0915 127.286 84.135 126.467 85.998C122.353 95.3628 118.228 102.173 112.774 107.593C108.029 112.308 102.311 115.935 94.7974 119.29C87.1347 129.216 75.1206 135.611 61.6109 135.611C39.5157 135.611 21.4152 118.51 19.8228 96.8213C16.4997 94.2515 13.6917 91.5317 11.2554 88.4814C6.45693 82.4735 3.13857 75.2359 0.122576 65.4619C-0.477434 63.5174 1.2173 61.6549 3.20265 62.0322L29.3257 66.9971C30.9284 65.0622 32.7027 63.2752 34.6236 61.6562C27.739 55.1081 23.5181 46.2815 23.5181 36.5693C23.5181 16.3726 41.7669 0 64.2778 0Z" fill="#444444"/>
<path fill-rule="evenodd" clip-rule="evenodd" d="M64.2778 0C86.7886 0.000182193 105.037 16.3728 105.037 36.5693C105.037 47.5112 99.6792 57.3286 91.1909 64.0303C96.5645 69.386 100.488 76.1925 102.334 83.8115L123.8 82.2393C125.816 82.0915 127.286 84.135 126.467 85.998C122.353 95.3628 118.228 102.173 112.774 107.593C108.029 112.308 102.311 115.935 94.7974 119.29C87.1347 129.216 75.1206 135.611 61.6109 135.611C39.5157 135.611 21.4152 118.51 19.8228 96.8213C16.4997 94.2515 13.6917 91.5317 11.2554 88.4814C6.45693 82.4735 3.13857 75.2359 0.122576 65.4619C-0.477434 63.5174 1.2173 61.6549 3.20265 62.0322L29.3257 66.9971C30.9284 65.0622 32.7027 63.2752 34.6236 61.6562C27.739 55.1081 23.5181 46.2815 23.5181 36.5693C23.5181 16.3726 41.7669 0 64.2778 0Z" fill="#FECC09"/>
<circle cx="92.8473" cy="44.9498" r="4.57117" fill="#F5D7EB"/>
<circle cx="31.8983" cy="37.3312" r="4.57117" fill="#F5D6EB"/>
<path d="M47.3553 15.2373L56.9717 22.4496C58.1628 23.3429 57.8013 25.216 56.3632 25.6018L45.6121 28.4863" stroke="#444444" stroke-width="4" stroke-linecap="round"/>
<path d="M86.3951 21.3932L74.8626 24.7835C73.4341 25.2034 73.1173 27.0846 74.3293 27.9493L83.3908 34.4143" stroke="#444444" stroke-width="4" stroke-linecap="round"/>
<ellipse cx="63.1662" cy="45.6468" rx="19.8084" ry="11.4279" transform="rotate(9.07892 63.1662 45.6468)" fill="#FFEF99"/>
<path d="M77.2465 47.5633C76.6053 51.5759 69.7954 53.8236 62.0361 52.5837C54.2768 51.3437 48.5064 47.0858 49.1476 43.0732C49.7888 39.0606 55.3761 43.1776 63.1354 44.4176C70.8947 45.6575 77.8877 43.5507 77.2465 47.5633Z" fill="#E28A02"/>
</svg>
