<svg width="32" height="32" viewBox="0 0 32 32" fill="none" xmlns="http://www.w3.org/2000/svg">
<path d="M16.5 1C10.4375 1 5.5 5.9375 5.5 12V24.9106C5.49889 26.5119 6.12744 28.0494 7.25 29.1912C7.80056 29.7628 8.46065 30.2175 9.19086 30.5283C9.92107 30.8391 10.7064 30.9995 11.5 31C13.8038 31 15.6988 30.0237 17.1325 28.0987C17.4125 27.7237 17.7294 27.1775 18.0963 26.5456C19.0538 24.8975 20.3644 22.6412 22.0444 21.4994C23.655 20.405 24.9963 19.0281 25.9194 17.5169C26.9694 15.8087 27.5 13.9525 27.5 12C27.5 5.9375 22.5656 1 16.5 1ZM22.5 12.5C22.2348 12.5 21.9804 12.3946 21.7929 12.2071C21.6054 12.0196 21.5 11.7652 21.5 11.5C21.5 9.01875 19.2569 7 16.5 7C13.7431 7 11.5 9.01875 11.5 11.5V13.4012C13.1994 12.9113 15.15 12.9812 15.5175 13C16.0663 13.0052 16.6031 13.1609 17.0696 13.45C17.536 13.7392 17.9142 14.1508 18.163 14.6399C18.4118 15.1291 18.5216 15.6772 18.4805 16.2244C18.4394 16.7717 18.249 17.2972 17.93 17.7437C17.9113 17.7694 17.8919 17.7944 17.8706 17.8188C16.8363 19.0063 15.6206 20.6613 15.4669 21.2563C15.395 21.5077 15.2275 21.7211 15.0002 21.8505C14.7729 21.9799 14.5039 22.0151 14.2509 21.9485C13.998 21.882 13.7812 21.719 13.647 21.4945C13.5128 21.27 13.4719 21.0018 13.5331 20.7475C13.8775 19.4387 15.8413 17.11 16.3244 16.5506C16.4239 16.3998 16.4806 16.2249 16.4886 16.0444C16.4967 15.8639 16.4556 15.6846 16.3699 15.5256C16.2842 15.3666 16.157 15.2337 16.0019 15.1412C15.8467 15.0486 15.6694 14.9998 15.4888 15H15.4338C14.3963 14.9444 12.5656 15.05 11.5 15.5194V19C11.5 19.2652 11.3946 19.5196 11.2071 19.7071C11.0196 19.8946 10.7652 20 10.5 20C10.2348 20 9.98043 19.8946 9.79289 19.7071C9.60536 19.5196 9.5 19.2652 9.5 19V11.5C9.5 7.91563 12.64 5 16.5 5C20.36 5 23.5 7.91563 23.5 11.5C23.5 11.7652 23.3946 12.0196 23.2071 12.2071C23.0196 12.3946 22.7652 12.5 22.5 12.5Z" fill="#FFE300"/>
</svg>
